<svg xmlns="http://www.w3.org/2000/svg" viewBox="0 0 160 160" width="512" height="512" role="img" aria-label="PaperForge icon">
  <rect width="160" height="160" rx="30" fill="#242426"/>
  <g transform="translate(14 31) scale(.82)">
    <defs>
      <mask id="pf-icon-cut" maskUnits="userSpaceOnUse" x="0" y="0" width="160" height="120">
        <rect width="160" height="120" fill="white"/>
        <path d="M25 69 46 25h58l12 13c11 1 21 1 32-2-4 10-11 19-20 25-10 7-22 10-37 11H24Z" fill="black"/>
      </mask>
    </defs>
    <path fill="#F7F2E8" mask="url(#pf-icon-cut)" d="M12 37h25l9-12h58l12 13h32c-4 12-12 22-23 30-8 5-18 9-29 12-8 2-11 7-11 15 0 6 3 11 9 16l5 5H75l-5-9c-10-3-20-3-30 0l-5 9H14v-8l13-11c8-7 9-14 4-21-4-5-11-9-22-13l-4-2V45Z"/>
    <path fill="none" stroke="#F7F2E8" stroke-width="3.6" stroke-linejoin="round" stroke-linecap="round" d="M25 69 46 25h58l12 13c11 1 21 1 32-2-4 10-11 19-20 25-10 7-22 10-37 11H24Z"/>
    <path fill="none" stroke="#F7F2E8" stroke-width="3.6" stroke-linecap="round" d="M116 38c-2 7-3 13-5 18-3 10-9 15-20 16"/>
  </g>
</svg>
