<svg xmlns="http://www.w3.org/2000/svg" viewBox="0 0 160 120" width="640" height="480" role="img" aria-label="PaperForge mark for dark backgrounds">
  <defs>
    <mask id="pf-paper-cut-dark" maskUnits="userSpaceOnUse" x="0" y="0" width="160" height="120">
      <rect width="160" height="120" fill="white"/>
      <path d="M25 69 46 25h58l12 13c11 1 21 1 32-2-4 10-11 19-20 25-10 7-22 10-37 11H24Z" fill="black"/>
    </mask>
  </defs>
  <path fill="#F7F2E8" mask="url(#pf-paper-cut-dark)" d="M12 37h25l9-12h58l12 13h32c-4 12-12 22-23 30-8 5-18 9-29 12-8 2-11 7-11 15 0 6 3 11 9 16l5 5H75l-5-9c-10-3-20-3-30 0l-5 9H14v-8l13-11c8-7 9-14 4-21-4-5-11-9-22-13l-4-2V45Z"/>
  <path fill="none" stroke="#F7F2E8" stroke-width="3.2" stroke-linejoin="round" stroke-linecap="round" d="M25 69 46 25h58l12 13c11 1 21 1 32-2-4 10-11 19-20 25-10 7-22 10-37 11H24Z"/>
  <path fill="none" stroke="#F7F2E8" stroke-width="3.2" stroke-linecap="round" d="M116 38c-2 7-3 13-5 18-3 10-9 15-20 16"/>
</svg>
